<?xml version="1.0" standalone="no"?>
<!DOCTYPE svg PUBLIC "-//W3C//DTD SVG 20010904//EN"
 "http://www.w3.org/TR/2001/REC-SVG-20010904/DTD/svg10.dtd">
<svg version="1.0" xmlns="http://www.w3.org/2000/svg"
 width="700.000000pt" height="700.000000pt" viewBox="0 0 700.000000 700.000000"
 preserveAspectRatio="xMidYMid meet">
<metadata>
Created by potrace 1.11, written by Peter Selinger 2001-2013
</metadata>
<g transform="translate(0.000000,700.000000) scale(0.100000,-0.100000)"
fill="#000000" stroke="none">
<path d="M3300 6989 c-205 -24 -389 -80 -586 -179 -469 -234 -808 -676 -915
-1191 -10 -52 -24 -173 -31 -269 l-12 -175 -57 -62 c-67 -72 -103 -143 -120
-235 -25 -135 30 -297 132 -393 l49 -46 0 -755 0 -756 -49 -54 c-27 -30 -63
-78 -79 -107 -91 -160 -601 -1110 -620 -1154 -28 -66 -59 -198 -67 -288 -17
-188 75 -366 232 -447 96 -50 147 -58 378 -58 l205 0 0 -99 0 -98 -115 -6
c-103 -5 -121 -8 -168 -35 -37 -21 -61 -43 -83 -80 -36 -59 -44 -96 -44 -203
0 -144 49 -235 150 -278 l49 -21 1405 2 c1356 3 1405 4 1425 22 34 31 45 79
27 118 -32 68 60 63 -1248 66 l-1188 2 0 983 c0 751 3 986 12 995 17 17 3019
17 3036 0 9 -9 12 -244 12 -995 l0 -983 -120 0 c-131 0 -176 -11 -204 -51 -27
-40 -21 -86 18 -125 l35 -35 358 3 c348 3 359 4 400 25 54 29 100 86 118 147
15 51 20 172 9 239 -11 64 -63 137 -121 169 -47 27 -65 30 -168 35 l-115 6 0
98 0 99 205 0 c231 0 282 8 378 58 157 81 249 259 232 447 -8 90 -39 222 -67
288 -19 44 -529 994 -620 1154 -16 29 -52 77 -79 107 l-49 54 0 756 0 755 50
47 c61 57 116 162 131 253 23 131 -20 266 -120 374 l-57 62 -12 175 c-7 96
-21 218 -32 270 -110 519 -443 952 -916 1191 -307 155 -646 217 -984 178z
m856 -1711 c102 -138 304 -237 487 -238 l57 0 0 -217 c0 -248 -13 -361 -59
-504 -200 -621 -878 -970 -1500 -774 -201 64 -339 150 -496 309 -166 168 -259
335 -315 566 -21 84 -24 125 -28 358 l-4 262 55 0 c67 0 117 30 132 78 l9 32
131 0 131 0 9 -32 c6 -19 24 -42 45 -56 l35 -24 275 5 c254 4 282 6 370 29
114 31 204 70 299 131 76 50 205 167 242 222 l24 34 33 -66 c18 -36 48 -88 68
-115z m-2066 -473 l0 -235 -64 0 c-197 0 -311 206 -203 367 44 66 117 103 204
103 l63 0 0 -235z m3001 208 c97 -50 147 -160 120 -263 -29 -111 -105 -170
-227 -178 l-74 -5 0 237 0 236 63 0 c49 0 76 -6 118 -27z m-1858 -1710 c158
-34 516 -21 632 23 13 5 15 -24 15 -235 0 -227 -1 -241 -19 -251 -13 -6 -145
-10 -361 -10 -216 0 -348 4 -361 10 -18 10 -19 24 -19 251 0 211 2 240 15 235
8 -3 52 -13 98 -23z m-323 -446 c0 -81 78 -191 156 -218 57 -20 811 -20 868 0
78 27 156 137 156 218 l0 23 394 0 c359 0 400 -2 455 -19 76 -24 150 -70 199
-126 28 -32 500 -881 520 -936 2 -5 -86 -9 -207 -9 l-211 0 0 198 c0 239 -9
282 -75 347 -80 80 41 75 -1665 75 -1706 0 -1585 5 -1665 -75 -66 -65 -75
-108 -75 -347 l0 -198 -210 0 c-115 0 -210 2 -210 5 0 8 451 838 482 888 35
55 106 120 163 150 86 44 102 46 523 46 l402 1 0 -23z m-1150 -1552 l0 -275
-213 0 c-209 0 -214 0 -265 26 -82 41 -132 124 -132 219 0 60 24 179 50 248
l21 57 270 0 269 0 0 -275z m4038 218 c36 -99 45 -145 46 -233 1 -95 -13 -134
-66 -189 -62 -64 -71 -66 -315 -69 l-223 -3 0 275 0 276 269 0 269 0 20 -57z
m-4038 -1213 l0 -101 -97 3 -98 3 -3 83 c-2 53 1 89 9 98 8 10 36 14 100 14
l89 0 0 -100z m3669 86 c8 -9 11 -45 9 -98 l-3 -83 -97 -3 -98 -3 0 101 0 100
89 0 c64 0 92 -4 100 -14z"/>
<path d="M2811 4806 c-39 -22 -50 -54 -51 -149 0 -84 1 -90 29 -117 36 -36 73
-46 112 -29 51 21 69 61 69 158 0 81 -1 84 -34 117 -37 37 -81 44 -125 20z"/>
<path d="M4064 4786 c-33 -33 -34 -36 -34 -117 0 -97 18 -137 69 -158 39 -17
76 -7 112 29 27 27 29 33 29 114 0 96 -12 131 -51 152 -48 24 -87 18 -125 -20z"/>
<path d="M3060 4279 c-59 -24 -84 -82 -60 -140 25 -59 193 -158 331 -194 83
-22 242 -23 331 -1 138 32 312 134 338 196 28 67 -22 144 -93 144 -23 0 -56
-15 -111 -52 -99 -67 -181 -92 -296 -92 -114 0 -197 25 -292 90 -82 54 -111
64 -148 49z"/>
<path d="M3395 1656 c-75 -20 -102 -32 -164 -76 -171 -120 -238 -348 -162
-550 26 -69 100 -163 164 -206 216 -148 509 -93 652 122 89 134 102 321 33
459 -55 109 -155 198 -265 236 -75 26 -193 33 -258 15z m218 -220 c190 -93
193 -358 5 -461 -200 -109 -440 94 -364 308 29 80 78 131 161 164 42 17 152
11 198 -11z"/>
</g>
</svg>
